<?xml version="1.0" encoding="UTF-8"?>
<svg id="Laag_1" xmlns="http://www.w3.org/2000/svg" version="1.1" viewBox="0 0 40 40">
  <!-- Generator: Adobe Illustrator 29.0.1, SVG Export Plug-In . SVG Version: 2.1.0 Build 192)  -->
  <defs>
    <style>
      .st0 {
        fill: #ffed00;
      }

      .st0, .st1, .st2 {
        fill-rule: evenodd;
      }

      .st3 {
        fill: #fff;
      }

      .st2 {
        fill: #e3000b;
      }
    </style>
  </defs>
  <path class="st3" d="M.22.27v39.47h39.47V.27H.22Z"/>
  <path class="st0" d="M.22,39.73V.27h39.47v39.47S.22,39.73.22,39.73H.22ZM36.25,20.46c.35-1.02.74-2.56.8-3.79.05-.93-.08-2.23-.95-3.15-.7-.74-1.76-1.11-3.17-1.11-1.78,0-3.21.63-4.25,1.87l-.28.33-.18-.39c-.15-.31-.26-.44-.42-.63-.72-.81-1.91-1.22-3.57-1.22-1.51,0-2.88.45-3.85,1.28l-.25.21-.17-.27c-.46-.74-1.6-1.22-2.9-1.22-1.88,0-3.78.26-4.92,2.1l-.47.76-.04-.9c-.03-.69-.09-.98-.41-1.32-.35-.38-.95-.56-1.82-.56-1.28,0-2.25.56-2.95,1.71-1.08,1.72-3.69,7.39-3.63,10.08.04,1.75,1.2,2.82,3.12,2.86,1.58.04,2.84-.37,3.63-1.17l.2-.21.2.21c.72.78,1.81,1.21,3.07,1.21,1.61,0,2.98-.5,3.77-1.37l.22-.24.2.25c.74.91,1.88,1.38,3.3,1.38,1.85,0,3.59-.86,4.75-2.34l.31-.39.17.46c.72,1.95,2.66,2.24,3.76,2.24,3.73,0,5.33-2.56,6.72-6.68h0Z"/>
  <path class="st2" d="M.22,39.73V.27h39.47v39.47S.22,39.73.22,39.73H.22ZM36.5,23.35c.52-1.06,1.49-3.72,1.67-5.16v-.02c.22-1.75.43-3.41-.76-5.06-.84-1.17-2.27-1.96-4.46-1.96-1.65,0-3.12.45-4.3,1.43-1.01-1-2.45-1.45-4.4-1.45-1.52,0-2.8.35-3.91,1.02-.81-.64-1.76-1.04-3.27-1.04-1.37,0-3.29.07-4.74,1.3-.34-.68-1.02-1.22-2.9-1.22-1.73,0-3.15.82-4.07,2.34-1.24,1.98-3.86,7.68-3.8,10.8.05,2.35,1.81,3.96,4.36,4.03,1.53.04,2.84-.29,3.83-.95.9.65,2.05,1,3.33,1,1.53,0,2.91-.4,3.93-1.12.93.74,2.14,1.13,3.52,1.13,1.79,0,3.45-.62,4.79-1.79.91,1.17,2.48,1.77,4.38,1.77,3.56,0,5.41-2.19,6.79-5.04Z"/>
  <path class="st1" d="M-.06,40V0h40v40s-40,0-40,0ZM39.39,39.45V.55S.49.55.49.55v38.9h38.9Z"/>
  <path class="st1" d="M37.19,12.07c0-.53.43-.96.95-.96,0,0,0,0,0,0,.53,0,.96.43.96.96h0c0,.53-.43.96-.95.96,0,0,0,0,0,0-.53,0-.96-.43-.96-.95,0,0,0,0,0,0ZM38.15,11.3c.43,0,.77.34.77.77,0,.43-.35.77-.77.77-.42,0-.77-.35-.77-.77,0,0,0,0,0,0,0-.42.34-.77.76-.77,0,0,0,0,0,0ZM38.52,12.37l.11.2h-.25s-.08-.16-.08-.16c-.04-.07-.08-.14-.14-.19-.04-.04-.07-.05-.16-.05h-.04s0,.41,0,.41h-.2v-.99h.49c.21,0,.31.12.31.28,0,.15-.1.26-.27.28h0c.09.04.11.06.21.24h0ZM37.97,11.73v.27h.21c.14,0,.18-.07.18-.14,0-.09-.07-.14-.2-.14h-.19ZM28.47,14.1c.97-1.14,2.4-1.96,4.46-1.96,3.58,0,4.52,2.34,4.4,4.55-.07,1.33-.5,2.91-.81,3.86-1.42,4.21-3.12,6.87-6.98,6.87-1.77,0-3.38-.69-4.02-2.42-1.16,1.47-2.94,2.43-4.97,2.44-1.55,0-2.75-.54-3.52-1.48-.91,1-2.45,1.46-3.98,1.46-1.37,0-2.52-.48-3.27-1.3-.84.85-2.16,1.29-3.83,1.26-2.15-.05-3.35-1.34-3.39-3.13-.06-2.77,2.58-8.49,3.67-10.23.75-1.23,1.79-1.84,3.18-1.84.76,0,1.54.13,2.02.64.4.42.46.79.49,1.5,1.22-1.96,3.27-2.23,5.15-2.23,1.44,0,2.64.54,3.14,1.35.97-.82,2.36-1.34,4.03-1.34,1.71,0,2.98.42,3.77,1.31.17.2.3.35.46.69h0ZM9.63,23.76c.06-.67-.44-1.39-2.44-1.05.2-.45.49-1.06.83-1.75h0c1.08-2.22,2.56-5.29,2.59-6.49.02-.59-.22-1.09-1.18-1.09-1.01,0-1.65.42-2.17,1.28-1.13,1.81-3.53,7.25-3.48,9.61.03,1.35,1.07,1.88,2.23,1.9,1.6.04,3.44-.41,3.63-2.42h0ZM13.71,20.86c-.13.36-.38,1.11-.59,1.9.66-.16,1.15-.28,1.99-.26.96.02,1.58.42,1.58,1.22,0,1.93-2.13,2.49-3.61,2.49-1.62,0-3.05-.92-3.05-2.7,0-2.08,1.13-5.24,2.19-7.34,1.3-2.58,2.63-2.92,4.92-2.92,1.01,0,2.16.43,2.16,1.38,0,1.32-1.11,1.82-2.22,1.88-.47.03-1.2.05-1.63.02,0,0-.37.56-.76,1.56,2.05-.29,2.91.18,2.57,1.36-.47,1.6-1.85,1.71-3.55,1.4h0ZM22.59,16.62c.27-.38.63-.73,1.19-.73.68,0,.61.36.45.82-.46,1.31.92,1.34,1.26,1.31,1.21-.09,1.87-.87,2.03-2.2.22-1.81-1.3-2.5-3.23-2.5-3.22,0-4.48,1.97-5.69,4.78-.57,1.32-1.28,3.58-1.28,5.02,0,2.02,1.23,3.12,3.21,3.12,2.89,0,4.94-2.31,5.52-5.18.18-.88.4-2.54-1.85-2.45-1.14.05-1.83.3-2.19,1.46-.37,1.2.98,1.23.98,1.23-.27,1.24-1.07,1.99-1.78,1.99-.44,0-.85-.19-.71-1.13.2-1.37,1.49-4.71,2.08-5.54h0ZM35.93,18.26c-.34,1.69-1.11,3.7-1.94,5.19-1.36,2.44-3,2.78-4.44,2.76-1.44-.02-3.06-.55-3.07-2.76,0-1.59.68-3.84,1.26-5.31,1.02-2.67,2.05-4.85,5.34-4.81,3.83.04,3.14,3.45,2.85,4.93h0ZM31.13,22.6c.53-.9,2.03-4.99,2.07-6.01.01-.3-.04-.64-.52-.65-.33,0-.62.06-.87.46-.58.75-2.27,5.37-2.24,6.3.01.33.2.62.6.62.47,0,.73-.32.96-.71h0Z"/>
</svg>